<svg width="60" height="60" viewBox="0 0 60 60" fill="none" xmlns="http://www.w3.org/2000/svg">
<path d="M44.5363 48.264V53.128H15.9923L14.9683 49.8C16.7603 47.7947 18.0829 45.8747 18.9363 44.04C19.8323 42.2053 20.2803 39.944 20.2803 37.256C20.2803 36.1467 20.0883 34.824 19.7043 33.288H12.4723V29.192H18.2963C17.7416 27.6987 17.3149 26.2907 17.0163 24.968C16.7176 23.6027 16.5683 22.1093 16.5683 20.488C16.5683 17.7573 17.1443 15.3893 18.2963 13.384C19.4909 11.336 21.1336 9.75733 23.2243 8.648C25.3576 7.53866 27.7896 6.984 30.5203 6.984C34.8723 6.984 38.2216 8.24266 40.5683 10.76C42.9149 13.2773 44.1736 16.456 44.3443 20.296H38.9683C38.8829 17.7787 38.1149 15.752 36.6643 14.216C35.2563 12.68 33.2083 11.912 30.5203 11.912C28.0456 11.912 26.0189 12.6373 24.4403 14.088C22.9043 15.5387 22.1363 17.7573 22.1363 20.744C22.1363 22.152 22.2856 23.496 22.5843 24.776C22.8829 26.0133 23.3309 27.4853 23.9283 29.192H36.3443V33.288H25.2083C25.5923 34.824 25.7843 36.1467 25.7843 37.256C25.7843 41.3093 24.2696 44.9787 21.2403 48.264H44.5363Z" fill="black"/>
</svg>
