<svg width="60" height="60" viewBox="0 0 60 60" fill="none" xmlns="http://www.w3.org/2000/svg">
<path d="M10 45V25C10 22.2386 12.2386 20 15 20H28H37H50C52.7615 20 55 22.2386 55 25V45C55 47.7615 52.7615 50 50 50H37H28H15C12.2386 50 10 47.7615 10 45Z" stroke="black" stroke-width="4" stroke-linecap="round" stroke-linejoin="round"/>
<path d="M46.25 35.0254L46.2753 34.9973" stroke="black" stroke-width="4" stroke-linecap="round" stroke-linejoin="round"/>
<path d="M18.75 35.0252L18.7753 34.9972" stroke="black" stroke-width="4" stroke-linecap="round" stroke-linejoin="round"/>
<path d="M10 40H7.5C4.73857 40 2.5 37.7615 2.5 35V15C2.5 12.2386 4.73857 10 7.5 10H42.5C45.2615 10 47.5 12.2386 47.5 15V20" stroke="black" stroke-width="4" stroke-linecap="round" stroke-linejoin="round"/>
<path d="M32.5 40C29.7385 40 27.5 37.7615 27.5 35C27.5 32.2385 29.7385 30 32.5 30C35.2615 30 37.5 32.2385 37.5 35C37.5 37.7615 35.2615 40 32.5 40Z" stroke="black" stroke-width="4" stroke-linecap="round" stroke-linejoin="round"/>
</svg>
