<svg width="50" height="46" viewBox="0 0 50 46" fill="none" xmlns="http://www.w3.org/2000/svg">
<path d="M8.9 34.2H6.6C5.38 34.2 4.20998 33.7154 3.34731 32.8527C2.48464 31.99 2 30.82 2 29.6V6.6C2 5.38 2.48464 4.20998 3.34731 3.34731C4.20998 2.48464 5.38 2 6.6 2H43.4C44.62 2 45.79 2.48464 46.6527 3.34731C47.5154 4.20998 48 5.38 48 6.6V29.6C48 30.82 47.5154 31.99 46.6527 32.8527C45.79 33.7154 44.62 34.2 43.4 34.2H41.1" stroke="black" stroke-width="4" stroke-linecap="round" stroke-linejoin="round"/>
<path d="M25 29.6001L36.5 43.4001H13.5L25 29.6001Z" stroke="black" stroke-width="4" stroke-linecap="round" stroke-linejoin="round"/>
</svg>
