<svg width="288" height="6" viewBox="0 0 288 6" fill="none" xmlns="http://www.w3.org/2000/svg">
<path fill-rule="evenodd" clip-rule="evenodd" d="M6.62048 1.01173C12.7245 1.34399 28.7662 1.3606 72.3133 1.39383C140.314 1.44367 194.282 1.80915 209.282 2.34076C210.473 2.3906 115.153 2.75608 105.364 2.49027C90.1043 2.05834 17.228 2.42382 2.5635 2.92221C-1.6051 3.05511 -0.0418594 3.52028 2.67518 3.61995C6.9182 3.78608 18.3075 3.76947 49.5349 3.73624C71.4945 3.71963 246.204 4.10173 265.297 4.78285C276.017 5.16495 282.53 5.51382 285.508 5.43075C288.001 5.3643 288.038 5.16495 285.88 4.61672C284.428 4.25124 286.066 4.03527 287.108 3.9356C288.708 3.76947 288.038 3.20463 286.029 2.75608C283.312 2.1414 278.622 2.15802 280.855 2.77269C281.339 2.9056 281.451 3.23785 279.738 3.1714C274.751 2.97205 239.504 1.60979 229.939 1.37721C127.808 -1.14794 28.1334 0.696084 7.02986 0.0814075C-0.451292 -0.151173 2.97297 0.812375 6.62048 1.01173Z" fill="#AE9C7F"/>
</svg>
